HIERARCHY
ROOT Hips
{
	OFFSET 0.000000 0.000000 0.000000
	CHANNELS 6 Xposition Yposition Zposition Xrotation Yrotation Zrotation
	JOINT LeftUpLeg_virtual
	{
		OFFSET 0.000000 0.000000 0.000000
		CHANNELS 3 Xrotation Yrotation Zrotation
		JOINT LeftUpLeg
		{
			OFFSET 11.394100 -6.187798 -0.413800
			CHANNELS 3 Xrotation Yrotation Zrotation
			JOINT LeftLeg
			{
				OFFSET 0.430247 -32.302673 3.732800
				CHANNELS 3 Xrotation Yrotation Zrotation
				JOINT LeftFoot
				{
					OFFSET -0.430247 -48.264931 -6.423300
					CHANNELS 3 Xrotation Yrotation Zrotation
					JOINT LeftToeBase
					{
						OFFSET 4.230900 -16.068199 23.438400
						CHANNELS 3 Xrotation Yrotation Zrotation
						JOINT LeftToe_End
						{
							OFFSET 4.510700 0.695400 19.974600
							CHANNELS 3 Xrotation Yrotation Zrotation
							End Site
							{
								OFFSET 0 0 0
							}
						}
					}
				}
			}
		}
	}
	JOINT RightUpLeg_virtual
	{
		OFFSET 0.000000 0.000000 0.000000
		CHANNELS 3 Xrotation Yrotation Zrotation
		JOINT RightUpLeg
		{
			OFFSET -11.333700 -6.187798 -0.413800
			CHANNELS 3 Xrotation Yrotation Zrotation
			JOINT RightLeg
			{
				OFFSET -0.430392 -32.302628 3.733000
				CHANNELS 3 Xrotation Yrotation Zrotation
				JOINT RightFoot
				{
					OFFSET 0.430392 -48.264973 -6.423500
					CHANNELS 3 Xrotation Yrotation Zrotation
					JOINT RightToeBase
					{
						OFFSET -4.230900 -16.068199 23.438400
						CHANNELS 3 Xrotation Yrotation Zrotation
						JOINT RightToe_End
						{
							OFFSET -4.510700 0.695400 19.974600
							CHANNELS 3 Xrotation Yrotation Zrotation
							End Site
							{
								OFFSET 0 0 0
							}
						}
					}
				}
			}
		}
	}
	JOINT Spine_virtual
	{
		OFFSET 0.000000 0.000000 0.000000
		CHANNELS 3 Xrotation Yrotation Zrotation
		JOINT Spine
		{
			OFFSET -0.002400 12.777504 0.315300
			CHANNELS 3 Xrotation Yrotation Zrotation
			JOINT Spine1
			{
				OFFSET -0.002067 5.816869 0.032633
				CHANNELS 3 Xrotation Yrotation Zrotation
				JOINT Spine1_split
				{
					OFFSET -0.002067 5.816869 0.032633
					CHANNELS 3 Xrotation Yrotation Zrotation
					JOINT Spine2
					{
						OFFSET -0.002067 5.816869 0.032633
						CHANNELS 3 Xrotation Yrotation Zrotation
						JOINT Neck_virtual
						{
							OFFSET 0.000000 0.000000 0.000000
							CHANNELS 3 Xrotation Yrotation Zrotation
							JOINT Neck
							{
								OFFSET -0.003700 21.199493 -0.826900
								CHANNELS 3 Xrotation Yrotation Zrotation
								JOINT Head
								{
									OFFSET 0.000000 20.442200 4.834800
									CHANNELS 3 Xrotation Yrotation Zrotation
									JOINT HeadTop_End
									{
										OFFSET 0.000000 34.668396 4.968400
										CHANNELS 3 Xrotation Yrotation Zrotation
										End Site
										{
											OFFSET 0 0 0
										}
									}
								}
							}
						}
						JOINT LeftShoulder_virtual
						{
							OFFSET 0.000000 0.000000 0.000000
							CHANNELS 3 Xrotation Yrotation Zrotation
							JOINT LeftShoulder
							{
								OFFSET 3.288150 8.794197 -1.372250
								CHANNELS 3 Xrotation Yrotation Zrotation
								JOINT LeftShoulder_split
								{
									OFFSET 3.288150 8.794197 -1.372250
									CHANNELS 3 Xrotation Yrotation Zrotation
									JOINT LeftArm
									{
										OFFSET 11.953299 -2.279007 -0.146200
										CHANNELS 3 Xrotation Yrotation Zrotation
										JOINT LeftForeArm
										{
											OFFSET 18.448900 0.000000 0.000000
											CHANNELS 3 Xrotation Yrotation Zrotation
											JOINT LeftHand
											{
												OFFSET 29.527798 0.000000 0.000000
												CHANNELS 3 Xrotation Yrotation Zrotation
												End Site
												{
													OFFSET 0 0 0
												}
											}
										}
									}
								}
							}
						}
						JOINT RightShoulder_virtual
						{
							OFFSET 0.000000 0.000000 0.000000
							CHANNELS 3 Xrotation Yrotation Zrotation
							JOINT RightShoulder
							{
								OFFSET -3.249400 8.794197 -1.372250
								CHANNELS 3 Xrotation Yrotation Zrotation
								JOINT RightShoulder_split
								{
									OFFSET -3.249400 8.794197 -1.372250
									CHANNELS 3 Xrotation Yrotation Zrotation
									JOINT RightArm
									{
										OFFSET -11.953299 -2.279007 -0.146200
										CHANNELS 3 Xrotation Yrotation Zrotation
										JOINT RightForeArm
										{
											OFFSET -18.448900 0.000000 0.000000
											CHANNELS 3 Xrotation Yrotation Zrotation
											JOINT RightHand
											{
												OFFSET -29.527802 0.000000 0.000000
												CHANNELS 3 Xrotation Yrotation Zrotation
												End Site
												{
													OFFSET 0 0 0
												}
											}
										}
									}
								}
							}
						}
					}
				}
			}
		}
	}
}
MOTION
Frames: 9
Frame Time: 0.03333333
-0.106156 100.121002 -1.160862 0.000000 0.000000 0.000000 -0.284014 0.005959 -2.661457 -19.852011 11.550435 13.436012 21.328802 11.795682 0.919836 -0.454546 2.605942 -7.350115 -0.473466 -0.000564 -0.000008 0.000000 0.000000 0.000000 -0.284014 0.005959 -2.661457 -6.001300 -4.242038 2.118874 16.774502 -2.824131 3.680909 -10.317755 -0.097335 -3.031503 -0.586283 -0.000190 -0.000008 0.000000 0.000000 0.000000 -0.284014 0.005959 -2.661457 0.565483 -1.397427 0.659730 0.884704 -0.154384 2.637805 0.000000 0.000000 0.000000 0.000000 0.000000 0.000000 0.868038 0.313564 2.550323 1.242740 -0.362780 0.178330 1.579608 0.543348 -5.747759 0.000000 0.000000 0.000000 0.868038 0.313564 2.550323 0.000018 -0.000019 -0.312853 0.000000 0.000000 0.000000 3.284677 -25.851918 -73.291570 2.210834 -20.459234 0.701236 0.000000 0.000000 0.000000 0.868038 0.313564 2.550323 0.000036 -0.000016 0.312818 0.000000 0.000000 0.000000 5.327959 -3.221401 75.188724 -0.286934 18.989995 0.139595 0.000000 0.000000 0.000000 
-0.007068 100.016869 -1.794456 0.000000 0.000000 0.000000 -1.533083 -3.442663 -2.986026 -19.743420 15.692710 15.387247 22.116024 13.329157 1.099862 -0.951077 -0.014933 -7.553726 -0.473474 -0.000559 -0.000007 0.000000 0.000000 0.000000 -1.533083 -3.442663 -2.986026 -8.689841 -4.163936 1.902637 21.293566 -1.162563 3.792391 -8.994878 2.607706 -3.313139 -1.761473 -0.000114 -0.000598 0.000000 0.000000 0.000000 -1.533083 -3.442663 -2.986026 2.036284 -1.507268 0.606713 1.261821 -0.310409 2.528742 0.000000 0.000000 0.000000 0.000000 0.000000 0.000000 1.249909 0.054707 2.460124 0.302905 0.013837 0.261822 1.321119 3.847865 -5.697074 0.000000 0.000000 0.000000 1.249909 0.054707 2.460124 1.986223 0.122395 -0.120703 0.000000 0.000000 0.000000 8.094353 -24.899069 -68.198530 1.185691 -21.611473 0.480244 0.000000 0.000000 0.000000 1.249909 0.054707 2.460124 0.253462 0.912356 -0.080289 0.000000 0.000000 0.000000 3.636563 1.596723 74.135235 -0.350373 17.651432 0.182489 0.000000 0.000000 0.000000 
0.287753 99.771027 -3.028576 0.000000 0.000000 0.000000 -2.863367 -9.164050 -3.920894 -22.141764 24.425518 20.120235 23.792093 9.046310 0.805901 -1.753063 0.117154 -6.666511 -0.473482 -0.000525 -0.000014 0.000000 0.000000 0.000000 -2.863367 -9.164050 -3.920894 -13.559412 -4.026099 0.678054 27.571995 2.990930 4.281252 -7.729126 4.936929 -0.250007 -2.264619 0.064023 -2.142786 0.000000 0.000000 0.000000 -2.863367 -9.164050 -3.920894 5.283347 -1.849088 0.522322 2.096226 -0.673417 2.240413 0.000000 0.000000 0.000000 0.000000 0.000000 0.000000 2.092916 -0.513343 2.211526 -0.450335 0.594609 0.431789 -1.746708 10.004497 -5.052603 0.000000 0.000000 0.000000 2.092916 -0.513343 2.211526 4.117133 0.657557 1.005865 0.000000 0.000000 0.000000 15.953529 -29.708249 -62.779192 -1.655369 -26.434854 -0.428600 0.000000 0.000000 0.000000 2.092916 -0.513343 2.211526 0.913444 3.143518 -1.042106 0.000000 0.000000 0.000000 -2.332374 5.204006 73.608792 -0.324170 15.628841 0.222815 0.000000 0.000000 0.000000 
0.712448 99.449104 -4.076885 0.000000 0.000000 0.000000 -2.752878 -16.116251 -5.265359 -27.737733 32.299623 27.001041 26.097220 7.351970 0.734711 -2.829542 -1.211129 -6.362614 -0.473486 -0.000524 -0.000012 0.000000 0.000000 0.000000 -2.752878 -16.116251 -5.265359 -17.799338 -4.000695 -0.366893 29.969330 7.925640 4.536273 -6.385283 8.056814 3.691315 -2.149432 0.057663 -2.031422 0.000000 0.000000 0.000000 -2.752878 -16.116251 -5.265359 8.555620 -2.434124 0.421728 2.957239 -1.084285 1.834165 0.000000 0.000000 0.000000 0.000000 0.000000 0.000000 2.959114 -1.076851 1.840605 -0.965282 1.204222 0.645530 -6.422725 17.365858 -3.759208 0.000000 0.000000 0.000000 2.959114 -1.076851 1.840605 6.415024 1.672830 2.667600 0.000000 0.000000 0.000000 24.361739 -33.759310 -57.375577 -6.067091 -40.575278 -2.868200 0.000000 0.000000 0.000000 2.959114 -1.076851 1.840605 1.812766 5.937530 -2.243426 0.000000 0.000000 0.000000 -10.128202 7.510760 73.806034 -0.285824 15.294675 0.285193 0.000000 0.000000 0.000000 
1.204560 99.056786 -4.820827 0.000000 0.000000 0.000000 -1.825814 -22.588102 -6.759985 -34.046628 35.724113 33.591881 28.918314 5.861129 0.694186 -3.972605 0.607462 -6.453562 -0.473503 -0.000511 -0.000007 0.000000 0.000000 0.000000 -1.825814 -22.588102 -6.759985 -21.758621 -4.340414 -1.247937 31.025315 8.586840 4.283679 -5.239669 12.947199 9.229671 -1.932337 0.047499 -1.842335 0.000000 0.000000 0.000000 -1.825814 -22.588102 -6.759985 9.975105 -3.447171 0.299734 3.429638 -1.496036 1.388183 0.000000 0.000000 0.000000 0.000000 0.000000 0.000000 3.431722 -1.484887 1.407567 -1.293190 1.708820 0.861394 -9.657060 24.130370 -1.972000 0.000000 0.000000 0.000000 3.431722 -1.484887 1.407567 8.893602 3.198604 4.454273 0.000000 0.000000 0.000000 42.449335 -35.390308 -48.369989 -23.938567 -65.563689 -19.732724 0.000000 0.000000 0.000000 3.431722 -1.484887 1.407567 2.678477 8.564460 -3.310791 0.000000 0.000000 0.000000 -14.591331 8.516142 74.667218 -0.310551 18.940719 0.385697 0.000000 0.000000 0.000000 
1.722963 98.701866 -5.355335 0.000000 0.000000 0.000000 -1.039794 -28.321058 -8.169216 -39.778868 37.519322 39.656440 31.446898 3.902850 0.631881 -4.994048 3.563295 -6.466701 -0.473478 -0.000546 -0.000001 0.000000 0.000000 0.000000 -1.039794 -28.321058 -8.169216 -23.662055 -4.882014 -2.086527 30.390531 7.145747 3.708897 -5.253218 14.662842 12.795623 -0.299985 -0.000164 0.000008 0.000000 0.000000 0.000000 -1.039794 -28.321058 -8.169216 10.443510 -4.404948 0.185397 3.637075 -1.875070 0.980247 0.000000 0.000000 0.000000 0.000000 0.000000 0.000000 3.640930 -1.857340 1.010851 -1.437664 2.139212 1.084523 -11.560825 29.951578 -0.498632 0.000000 0.000000 0.000000 3.640930 -1.857340 1.010851 11.919291 5.346396 5.819006 0.000000 0.000000 0.000000 66.158046 -33.416195 -40.464732 -132.876454 -70.849259 -130.964397 0.000000 0.000000 0.000000 3.640930 -1.857340 1.010851 3.107978 10.330087 -3.802349 0.000000 0.000000 0.000000 -14.427521 7.308032 75.303771 -0.515239 29.972000 0.609902 0.000000 0.000000 0.000000 
2.256235 98.519035 -5.797215 0.000000 0.000000 0.000000 -0.672961 -33.056951 -8.974231 -43.743902 39.184744 44.075883 32.800382 2.238705 0.599850 -5.614497 6.204154 -6.349293 -0.473485 -0.000522 -0.000014 0.000000 0.000000 0.000000 -0.672961 -33.056951 -8.974231 -23.485510 -4.866698 -3.086317 29.864138 4.043378 3.002547 -7.895530 4.011566 8.772559 -0.120953 -0.000278 0.000000 0.000000 0.000000 0.000000 -0.672961 -33.056951 -8.974231 10.808561 -5.204009 0.189569 3.684939 -2.201695 0.688267 0.000000 0.000000 0.000000 0.000000 0.000000 0.000000 3.691406 -2.178579 0.726474 -1.492638 2.480436 1.322214 -12.174899 34.727397 -0.580061 0.000000 0.000000 0.000000 3.691406 -2.178579 0.726474 15.243141 8.629497 7.416197 0.000000 0.000000 0.000000 81.584458 -39.178197 -35.945059 -147.371795 -55.990302 -147.750898 0.000000 0.000000 0.000000 3.691406 -2.178579 0.726474 2.519586 11.424372 -2.583012 0.000000 0.000000 0.000000 -9.865770 5.223057 73.224047 -0.979020 46.381141 0.994927 0.000000 0.000000 0.000000 
2.690554 98.144699 -6.062603 0.000000 0.000000 0.000000 -0.967187 -36.253906 -8.621205 -45.473610 41.106425 46.088474 33.914314 0.750099 0.581030 -6.280534 8.363010 -6.118123 -0.473496 -0.000527 -0.000015 0.000000 0.000000 0.000000 -0.967187 -36.253906 -8.621205 -23.573068 -5.734358 -6.076821 31.097595 -3.350079 2.054180 -4.814219 0.696716 1.790442 -0.041180 -0.000202 -0.000008 0.000000 0.000000 0.000000 -0.967187 -36.253906 -8.621205 11.640940 -5.847197 0.300725 3.576251 -2.259466 0.532543 0.000000 0.000000 0.000000 0.000000 0.000000 0.000000 3.579379 -2.240078 0.572677 -1.607754 2.726093 1.624055 -10.972374 38.148539 -3.852876 0.000000 0.000000 0.000000 3.579379 -2.240078 0.572677 17.855021 12.334030 9.141985 0.000000 0.000000 0.000000 86.442744 -44.354477 -34.884061 -146.600653 -50.700194 -148.300523 0.000000 0.000000 0.000000 3.579379 -2.240078 0.572677 1.344956 12.335756 -0.406561 0.000000 0.000000 0.000000 -3.308581 1.930127 68.444342 -1.844140 62.289140 1.733730 0.000000 0.000000 0.000000 
2.973157 97.470634 -6.163307 0.000000 0.000000 0.000000 -1.067916 -38.795242 -7.500729 -45.926414 42.164093 46.256094 35.614946 -0.133053 0.610765 -7.193795 10.857168 -6.126746 -0.473512 -0.000520 -0.000013 0.000000 0.000000 0.000000 -1.067916 -38.795242 -7.500729 -25.708436 -7.794275 -10.889799 36.476957 -3.229350 1.872979 -3.353961 -0.332268 -2.464523 -1.451146 -0.090743 3.677107 0.000000 0.000000 0.000000 -1.067916 -38.795242 -7.500729 12.256032 -5.946241 0.207451 3.298429 -1.932374 0.432078 0.000000 0.000000 0.000000 0.000000 0.000000 0.000000 3.300938 -1.915326 0.465414 -1.514665 2.892081 1.935782 -9.423463 40.499484 -7.823436 0.000000 0.000000 0.000000 3.300938 -1.915326 0.465414 19.012494 14.896323 9.517625 0.000000 0.000000 0.000000 85.362707 -45.008088 -37.051198 -144.327744 -49.372012 -146.639107 0.000000 0.000000 0.000000 3.300938 -1.915326 0.465414 0.761287 12.938129 0.299568 0.000000 0.000000 0.000000 2.685659 -0.482874 64.837702 -3.036335 71.745960 2.880406 0.000000 0.000000 0.000000 
